<svg width="111" height="26" viewBox="0 0 111 26" fill="none" xmlns="http://www.w3.org/2000/svg">
  <path fill-rule="evenodd" clip-rule="evenodd" d="M50.9177 5.99769H54.8718V10.2989H50.9177V19.6967H54.8718V23.9979H50.9177H46.628V0.646088H50.9177V5.99769ZM29.3329 6.97473C30.8839 5.92956 32.7012 5.32199 34.7128 5.32199C40.0929 5.32199 44.3823 9.55066 44.3823 14.9711C44.3823 20.3915 39.9958 24.6693 34.6886 24.6693C29.3813 24.6693 25.0436 20.3672 25.0436 15.0199V0.646088H29.3329V6.97473ZM29.3329 14.996C29.3329 18.0341 31.7805 20.3675 34.6886 20.3675C37.6451 20.3675 40.0926 17.937 40.0926 14.996C40.0926 12.055 37.7903 9.64868 34.7128 9.64868C31.6352 9.64868 29.3329 11.9578 29.3329 14.996ZM5.04236 5.99712H0.753906V19.6961H5.04236V5.99712ZM13.6194 5.99712H9.331V19.6961H13.6194V5.99712ZM5.04236 19.6961H9.331L9.3309 23.9974H5.04245L5.04236 19.6961ZM13.6184 19.6962H17.9068V23.9974H13.6184V19.6962ZM17.9069 5.99712H22.1954V19.6961L17.9068 19.6962L17.9069 5.99712ZM56.3535 14.9957C56.3535 19.7554 59.6842 24.6672 66.0212 24.6672C68.9181 24.6672 71.1992 23.8527 72.8392 22.5083V18.2569H71.7611C70.6252 19.4978 68.8115 20.4507 66.8756 20.4507C64.4281 20.4507 61.2265 19.678 60.8274 16.1774H73.2253V7.64058C71.6525 6.1153 69.4094 5.32413 66.538 5.32413C60.2945 5.32413 56.3535 9.65416 56.3535 14.9957ZM68.7516 12.4413H61.3161C62.1106 10.561 63.8132 9.47268 66.524 9.47268C67.3456 9.47268 68.0878 9.58284 68.7516 9.78253V12.4413ZM99.0755 0.646088V5.99748H110.936V23.9977H106.646V10.2343H99.0755V23.9977H94.7862V0.646088H99.0755ZM75.7311 10.2986H80.0196V19.6961H75.7311V10.2986ZM80.0196 19.6961H92.1052V23.9976H80.0196V19.6961ZM80.0196 10.2986V5.99712H92.1052V10.2986H80.0196Z" fill="white"/>
  </svg>
  